<?xml version="1.0" encoding="UTF-8" standalone="no"?>
<!DOCTYPE svg PUBLIC "-//W3C//DTD SVG 1.1//EN"
 "http://www.w3.org/Graphics/SVG/1.1/DTD/svg11.dtd">
<!-- Generated by graphviz version 2.40.1 (20161225.0304)
 -->
<!-- Title: %3 Pages: 1 -->
<svg width="2620pt" height="620pt"
 viewBox="0.00 0.00 2620.35 620.00" xmlns="http://www.w3.org/2000/svg" xmlns:xlink="http://www.w3.org/1999/xlink">
<g id="graph0" class="graph" transform="scale(1 1) rotate(0) translate(4 616)">
<title>%3</title>
<polygon fill="#ffffff" stroke="transparent" points="-4,4 -4,-616 2616.3532,-616 2616.3532,4 -4,4"/>
<!-- [root] aws_autoscaling_group.autoscaling_group -->
<g id="node1" class="node">
<title>[root] aws_autoscaling_group.autoscaling_group</title>
<polygon fill="none" stroke="#000000" points="1364.4123,-396 1109.1838,-396 1109.1838,-360 1364.4123,-360 1364.4123,-396"/>
<text text-anchor="middle" x="1236.798" y="-373.8" font-family="Times,serif" font-size="14.00" fill="#000000">aws_autoscaling_group.autoscaling_group</text>
</g>
<!-- [root] aws_elb.external_elb -->
<g id="node2" class="node">
<title>[root] aws_elb.external_elb</title>
<polygon fill="none" stroke="#000000" points="617.8613,-324 483.7348,-324 483.7348,-288 617.8613,-288 617.8613,-324"/>
<text text-anchor="middle" x="550.798" y="-301.8" font-family="Times,serif" font-size="14.00" fill="#000000">aws_elb.external_elb</text>
</g>
<!-- [root] aws_autoscaling_group.autoscaling_group&#45;&gt;[root] aws_elb.external_elb -->
<g id="edge1" class="edge">
<title>[root] aws_autoscaling_group.autoscaling_group&#45;&gt;[root] aws_elb.external_elb</title>
<path fill="none" stroke="#000000" d="M1109.0181,-364.0853C1096.1082,-362.6971 1083.1934,-361.3156 1070.798,-360 913.731,-343.329 729.9139,-324.3698 628.2957,-313.937"/>
<polygon fill="#000000" stroke="#000000" points="628.4263,-310.4321 618.1212,-312.8927 627.7116,-317.3956 628.4263,-310.4321"/>
</g>
<!-- [root] aws_launch_configuration.launch_configuration -->
<g id="node6" class="node">
<title>[root] aws_launch_configuration.launch_configuration</title>
<polygon fill="none" stroke="#000000" points="2031.0159,-324 1744.5802,-324 1744.5802,-288 2031.0159,-288 2031.0159,-324"/>
<text text-anchor="middle" x="1887.798" y="-301.8" font-family="Times,serif" font-size="14.00" fill="#000000">aws_launch_configuration.launch_configuration</text>
</g>
<!-- [root] aws_autoscaling_group.autoscaling_group&#45;&gt;[root] aws_launch_configuration.launch_configuration -->
<g id="edge2" class="edge">
<title>[root] aws_autoscaling_group.autoscaling_group&#45;&gt;[root] aws_launch_configuration.launch_configuration</title>
<path fill="none" stroke="#000000" d="M1364.5157,-364.5369C1462.7943,-354.0928 1602.3053,-339.085 1734.2967,-324.1647"/>
<polygon fill="#000000" stroke="#000000" points="1735.0537,-327.6014 1744.5965,-322.9988 1734.2663,-320.6459 1735.0537,-327.6014"/>
</g>
<!-- [root] var.autoscaling_group_desired_capacity -->
<g id="node16" class="node">
<title>[root] var.autoscaling_group_desired_capacity</title>
<ellipse fill="none" stroke="#000000" cx="1236.798" cy="-306" rx="174.7788" ry="18"/>
<text text-anchor="middle" x="1236.798" y="-301.8" font-family="Times,serif" font-size="14.00" fill="#000000">[root] var.autoscaling_group_desired_capacity</text>
</g>
<!-- [root] aws_autoscaling_group.autoscaling_group&#45;&gt;[root] var.autoscaling_group_desired_capacity -->
<g id="edge3" class="edge">
<title>[root] aws_autoscaling_group.autoscaling_group&#45;&gt;[root] var.autoscaling_group_desired_capacity</title>
<path fill="none" stroke="#000000" d="M1236.798,-359.8314C1236.798,-352.131 1236.798,-342.9743 1236.798,-334.4166"/>
<polygon fill="#000000" stroke="#000000" points="1240.2981,-334.4132 1236.798,-324.4133 1233.2981,-334.4133 1240.2981,-334.4132"/>
</g>
<!-- [root] var.autoscaling_group_max_size -->
<g id="node17" class="node">
<title>[root] var.autoscaling_group_max_size</title>
<ellipse fill="none" stroke="#000000" cx="1577.798" cy="-306" rx="148.737" ry="18"/>
<text text-anchor="middle" x="1577.798" y="-301.8" font-family="Times,serif" font-size="14.00" fill="#000000">[root] var.autoscaling_group_max_size</text>
</g>
<!-- [root] aws_autoscaling_group.autoscaling_group&#45;&gt;[root] var.autoscaling_group_max_size -->
<g id="edge4" class="edge">
<title>[root] aws_autoscaling_group.autoscaling_group&#45;&gt;[root] var.autoscaling_group_max_size</title>
<path fill="none" stroke="#000000" d="M1322.4066,-359.9243C1374.8583,-348.8495 1441.7006,-334.7361 1493.8453,-323.7261"/>
<polygon fill="#000000" stroke="#000000" points="1494.6752,-327.1281 1503.7363,-321.6377 1493.229,-320.2791 1494.6752,-327.1281"/>
</g>
<!-- [root] var.autoscaling_group_min_size -->
<g id="node18" class="node">
<title>[root] var.autoscaling_group_min_size</title>
<ellipse fill="none" stroke="#000000" cx="896.798" cy="-306" rx="147.3008" ry="18"/>
<text text-anchor="middle" x="896.798" y="-301.8" font-family="Times,serif" font-size="14.00" fill="#000000">[root] var.autoscaling_group_min_size</text>
</g>
<!-- [root] aws_autoscaling_group.autoscaling_group&#45;&gt;[root] var.autoscaling_group_min_size -->
<g id="edge5" class="edge">
<title>[root] aws_autoscaling_group.autoscaling_group&#45;&gt;[root] var.autoscaling_group_min_size</title>
<path fill="none" stroke="#000000" d="M1151.4405,-359.9243C1099.1427,-348.8495 1032.4964,-334.7361 980.5046,-323.7261"/>
<polygon fill="#000000" stroke="#000000" points="981.1507,-320.2854 970.6425,-321.6377 979.7005,-327.1335 981.1507,-320.2854"/>
</g>
<!-- [root] aws_security_group.elb_security_group -->
<g id="node8" class="node">
<title>[root] aws_security_group.elb_security_group</title>
<polygon fill="none" stroke="#000000" points="914.1332,-180 673.4628,-180 673.4628,-144 914.1332,-144 914.1332,-180"/>
<text text-anchor="middle" x="793.798" y="-157.8" font-family="Times,serif" font-size="14.00" fill="#000000">aws_security_group.elb_security_group</text>
</g>
<!-- [root] aws_elb.external_elb&#45;&gt;[root] aws_security_group.elb_security_group -->
<g id="edge6" class="edge">
<title>[root] aws_elb.external_elb&#45;&gt;[root] aws_security_group.elb_security_group</title>
<path fill="none" stroke="#000000" d="M581.5742,-287.7623C625.5775,-261.6863 706.4665,-213.752 754.6682,-185.1881"/>
<polygon fill="#000000" stroke="#000000" points="756.4532,-188.1987 763.2718,-180.0896 752.8846,-182.1767 756.4532,-188.1987"/>
</g>
<!-- [root] data.terraform_remote_state.account -->
<g id="node11" class="node">
<title>[root] data.terraform_remote_state.account</title>
<polygon fill="none" stroke="#000000" points="617.5267,-252 396.0694,-252 396.0694,-216 617.5267,-216 617.5267,-252"/>
<text text-anchor="middle" x="506.798" y="-229.8" font-family="Times,serif" font-size="14.00" fill="#000000">data.terraform_remote_state.account</text>
</g>
<!-- [root] aws_elb.external_elb&#45;&gt;[root] data.terraform_remote_state.account -->
<g id="edge7" class="edge">
<title>[root] aws_elb.external_elb&#45;&gt;[root] data.terraform_remote_state.account</title>
<path fill="none" stroke="#000000" d="M539.695,-287.8314C534.7306,-279.7079 528.7759,-269.9637 523.3052,-261.0118"/>
<polygon fill="#000000" stroke="#000000" points="526.2516,-259.121 518.0506,-252.4133 520.2786,-262.7712 526.2516,-259.121"/>
</g>
<!-- [root] aws_iam_instance_profile.iam_instance_profile -->
<g id="node3" class="node">
<title>[root] aws_iam_instance_profile.iam_instance_profile</title>
<polygon fill="none" stroke="#000000" points="1954.3986,-252 1671.1974,-252 1671.1974,-216 1954.3986,-216 1954.3986,-252"/>
<text text-anchor="middle" x="1812.798" y="-229.8" font-family="Times,serif" font-size="14.00" fill="#000000">aws_iam_instance_profile.iam_instance_profile</text>
</g>
<!-- [root] aws_iam_role.iam_role -->
<g id="node4" class="node">
<title>[root] aws_iam_role.iam_role</title>
<polygon fill="none" stroke="#000000" points="1313.5882,-180 1166.0079,-180 1166.0079,-144 1313.5882,-144 1313.5882,-180"/>
<text text-anchor="middle" x="1239.798" y="-157.8" font-family="Times,serif" font-size="14.00" fill="#000000">aws_iam_role.iam_role</text>
</g>
<!-- [root] aws_iam_instance_profile.iam_instance_profile&#45;&gt;[root] aws_iam_role.iam_role -->
<g id="edge8" class="edge">
<title>[root] aws_iam_instance_profile.iam_instance_profile&#45;&gt;[root] aws_iam_role.iam_role</title>
<path fill="none" stroke="#000000" d="M1671.1576,-216.2022C1562.0706,-202.495 1414.9607,-184.01 1323.8038,-172.5557"/>
<polygon fill="#000000" stroke="#000000" points="1324.1514,-169.0719 1313.793,-171.2978 1323.2786,-176.0173 1324.1514,-169.0719"/>
</g>
<!-- [root] provider.aws -->
<g id="node13" class="node">
<title>[root] provider.aws</title>
<polygon fill="none" stroke="#000000" points="1027.798,-108 949.1897,-90 1027.798,-72 1106.4064,-90 1027.798,-108"/>
<text text-anchor="middle" x="1027.798" y="-85.8" font-family="Times,serif" font-size="14.00" fill="#000000">provider.aws</text>
</g>
<!-- [root] aws_iam_role.iam_role&#45;&gt;[root] provider.aws -->
<g id="edge9" class="edge">
<title>[root] aws_iam_role.iam_role&#45;&gt;[root] provider.aws</title>
<path fill="none" stroke="#000000" d="M1186.5751,-143.9243C1150.1826,-131.5646 1102.6469,-115.4204 1069.1052,-104.0289"/>
<polygon fill="#000000" stroke="#000000" points="1070.1999,-100.7044 1059.6056,-100.8026 1067.9488,-107.3325 1070.1999,-100.7044"/>
</g>
<!-- [root] var.environment_name -->
<g id="node19" class="node">
<title>[root] var.environment_name</title>
<ellipse fill="none" stroke="#000000" cx="1237.798" cy="-90" rx="113.9829" ry="18"/>
<text text-anchor="middle" x="1237.798" y="-85.8" font-family="Times,serif" font-size="14.00" fill="#000000">[root] var.environment_name</text>
</g>
<!-- [root] aws_iam_role.iam_role&#45;&gt;[root] var.environment_name -->
<g id="edge10" class="edge">
<title>[root] aws_iam_role.iam_role&#45;&gt;[root] var.environment_name</title>
<path fill="none" stroke="#000000" d="M1239.2934,-143.8314C1239.0795,-136.131 1238.8251,-126.9743 1238.5874,-118.4166"/>
<polygon fill="#000000" stroke="#000000" points="1242.0859,-118.3122 1238.3095,-108.4133 1235.0886,-118.5066 1242.0859,-118.3122"/>
</g>
<!-- [root] var.unique_id -->
<g id="node20" class="node">
<title>[root] var.unique_id</title>
<ellipse fill="none" stroke="#000000" cx="850.798" cy="-90" rx="80.6835" ry="18"/>
<text text-anchor="middle" x="850.798" y="-85.8" font-family="Times,serif" font-size="14.00" fill="#000000">[root] var.unique_id</text>
</g>
<!-- [root] aws_iam_role.iam_role&#45;&gt;[root] var.unique_id -->
<g id="edge11" class="edge">
<title>[root] aws_iam_role.iam_role&#45;&gt;[root] var.unique_id</title>
<path fill="none" stroke="#000000" d="M1165.6233,-145.7248C1162.6449,-145.1313 1159.6945,-144.554 1156.798,-144 1060.776,-125.6345 1035.9464,-125.6926 939.798,-108 933.4899,-106.8392 926.9387,-105.5927 920.3811,-104.3171"/>
<polygon fill="#000000" stroke="#000000" points="920.5925,-100.7917 910.1051,-102.2966 919.242,-107.6602 920.5925,-100.7917"/>
</g>
<!-- [root] aws_iam_role_policy.ec2_iam_role_policy -->
<g id="node5" class="node">
<title>[root] aws_iam_role_policy.ec2_iam_role_policy</title>
<polygon fill="none" stroke="#000000" points="800.5931,-396 543.003,-396 543.003,-360 800.5931,-360 800.5931,-396"/>
<text text-anchor="middle" x="671.798" y="-373.8" font-family="Times,serif" font-size="14.00" fill="#000000">aws_iam_role_policy.ec2_iam_role_policy</text>
</g>
<!-- [root] aws_iam_role_policy.ec2_iam_role_policy&#45;&gt;[root] aws_iam_role.iam_role -->
<g id="edge12" class="edge">
<title>[root] aws_iam_role_policy.ec2_iam_role_policy&#45;&gt;[root] aws_iam_role.iam_role</title>
<path fill="none" stroke="#000000" d="M680.8577,-359.8528C692.086,-339.2605 713.1672,-306.1829 740.798,-288 758.3083,-276.4771 1018.3383,-214.1292 1155.8855,-181.6709"/>
<polygon fill="#000000" stroke="#000000" points="1157.0463,-184.9933 1165.976,-179.2915 1155.4397,-178.1801 1157.0463,-184.9933"/>
</g>
<!-- [root] data.terraform_remote_state.vpc -->
<g id="node12" class="node">
<title>[root] data.terraform_remote_state.vpc</title>
<polygon fill="none" stroke="#000000" points="747.7092,-108 549.8869,-108 549.8869,-72 747.7092,-72 747.7092,-108"/>
<text text-anchor="middle" x="648.798" y="-85.8" font-family="Times,serif" font-size="14.00" fill="#000000">data.terraform_remote_state.vpc</text>
</g>
<!-- [root] aws_iam_role_policy.ec2_iam_role_policy&#45;&gt;[root] data.terraform_remote_state.vpc -->
<g id="edge13" class="edge">
<title>[root] aws_iam_role_policy.ec2_iam_role_policy&#45;&gt;[root] data.terraform_remote_state.vpc</title>
<path fill="none" stroke="#000000" d="M670.3593,-359.9843C666.4708,-311.2939 655.7297,-176.7961 651.0387,-118.0573"/>
<polygon fill="#000000" stroke="#000000" points="654.5213,-117.6985 650.2363,-108.0089 647.5435,-118.2558 654.5213,-117.6985"/>
</g>
<!-- [root] aws_launch_configuration.launch_configuration&#45;&gt;[root] aws_iam_instance_profile.iam_instance_profile -->
<g id="edge14" class="edge">
<title>[root] aws_launch_configuration.launch_configuration&#45;&gt;[root] aws_iam_instance_profile.iam_instance_profile</title>
<path fill="none" stroke="#000000" d="M1868.8724,-287.8314C1859.8124,-279.1337 1848.8171,-268.5783 1838.9715,-259.1265"/>
<polygon fill="#000000" stroke="#000000" points="1841.3554,-256.5633 1831.7177,-252.1628 1836.5077,-261.613 1841.3554,-256.5633"/>
</g>
<!-- [root] data.template_file.user_data -->
<g id="node10" class="node">
<title>[root] data.template_file.user_data</title>
<polygon fill="none" stroke="#000000" points="2145.3469,-252 1972.2492,-252 1972.2492,-216 2145.3469,-216 2145.3469,-252"/>
<text text-anchor="middle" x="2058.798" y="-229.8" font-family="Times,serif" font-size="14.00" fill="#000000">data.template_file.user_data</text>
</g>
<!-- [root] aws_launch_configuration.launch_configuration&#45;&gt;[root] data.template_file.user_data -->
<g id="edge15" class="edge">
<title>[root] aws_launch_configuration.launch_configuration&#45;&gt;[root] data.template_file.user_data</title>
<path fill="none" stroke="#000000" d="M1930.9486,-287.8314C1953.9204,-278.159 1982.349,-266.1891 2006.5613,-255.9944"/>
<polygon fill="#000000" stroke="#000000" points="2008.0997,-259.1443 2015.9578,-252.038 2005.3832,-252.6929 2008.0997,-259.1443"/>
</g>
<!-- [root] aws_launch_configuration.launch_configuration&#45;&gt;[root] data.terraform_remote_state.account -->
<g id="edge16" class="edge">
<title>[root] aws_launch_configuration.launch_configuration&#45;&gt;[root] data.terraform_remote_state.account</title>
<path fill="none" stroke="#000000" d="M1744.6214,-288.7458C1741.6553,-288.4853 1738.7115,-288.2362 1735.798,-288 1330.5819,-255.15 848.4709,-241.2962 627.8598,-236.3512"/>
<polygon fill="#000000" stroke="#000000" points="627.6287,-232.8453 617.5535,-236.1224 627.4733,-239.8435 627.6287,-232.8453"/>
</g>
<!-- [root] var.image_id -->
<g id="node21" class="node">
<title>[root] var.image_id</title>
<ellipse fill="none" stroke="#000000" cx="1209.798" cy="-234" rx="78.2607" ry="18"/>
<text text-anchor="middle" x="1209.798" y="-229.8" font-family="Times,serif" font-size="14.00" fill="#000000">[root] var.image_id</text>
</g>
<!-- [root] aws_launch_configuration.launch_configuration&#45;&gt;[root] var.image_id -->
<g id="edge17" class="edge">
<title>[root] aws_launch_configuration.launch_configuration&#45;&gt;[root] var.image_id</title>
<path fill="none" stroke="#000000" d="M1744.6076,-288.8975C1741.6457,-288.5909 1738.7065,-288.2914 1735.798,-288 1541.007,-268.4859 1490.5681,-279.8837 1296.798,-252 1290.0282,-251.0258 1282.9932,-249.849 1275.9882,-248.5691"/>
<polygon fill="#000000" stroke="#000000" points="1276.2581,-245.0579 1265.7808,-246.6316 1274.9526,-251.9351 1276.2581,-245.0579"/>
</g>
<!-- [root] var.launch_configuration_instance_type -->
<g id="node22" class="node">
<title>[root] var.launch_configuration_instance_type</title>
<ellipse fill="none" stroke="#000000" cx="1479.798" cy="-234" rx="173.8357" ry="18"/>
<text text-anchor="middle" x="1479.798" y="-229.8" font-family="Times,serif" font-size="14.00" fill="#000000">[root] var.launch_configuration_instance_type</text>
</g>
<!-- [root] aws_launch_configuration.launch_configuration&#45;&gt;[root] var.launch_configuration_instance_type -->
<g id="edge18" class="edge">
<title>[root] aws_launch_configuration.launch_configuration&#45;&gt;[root] var.launch_configuration_instance_type</title>
<path fill="none" stroke="#000000" d="M1785.6321,-287.9707C1722.0009,-276.7417 1640.5917,-262.3753 1577.7653,-251.2883"/>
<polygon fill="#000000" stroke="#000000" points="1578.3033,-247.8293 1567.8472,-249.5381 1577.0868,-254.7228 1578.3033,-247.8293"/>
</g>
<!-- [root] aws_route53_record.external_elb_route53_record -->
<g id="node7" class="node">
<title>[root] aws_route53_record.external_elb_route53_record</title>
<polygon fill="none" stroke="#000000" points="525.7926,-396 229.8035,-396 229.8035,-360 525.7926,-360 525.7926,-396"/>
<text text-anchor="middle" x="377.798" y="-373.8" font-family="Times,serif" font-size="14.00" fill="#000000">aws_route53_record.external_elb_route53_record</text>
</g>
<!-- [root] aws_route53_record.external_elb_route53_record&#45;&gt;[root] aws_elb.external_elb -->
<g id="edge19" class="edge">
<title>[root] aws_route53_record.external_elb_route53_record&#45;&gt;[root] aws_elb.external_elb</title>
<path fill="none" stroke="#000000" d="M421.4532,-359.8314C444.6938,-350.159 473.4548,-338.1891 497.9503,-327.9944"/>
<polygon fill="#000000" stroke="#000000" points="499.5693,-331.1117 507.4568,-324.038 496.8796,-324.6491 499.5693,-331.1117"/>
</g>
<!-- [root] var.kibana_address -->
<g id="node23" class="node">
<title>[root] var.kibana_address</title>
<ellipse fill="none" stroke="#000000" cx="365.798" cy="-306" rx="99.9761" ry="18"/>
<text text-anchor="middle" x="365.798" y="-301.8" font-family="Times,serif" font-size="14.00" fill="#000000">[root] var.kibana_address</text>
</g>
<!-- [root] aws_route53_record.external_elb_route53_record&#45;&gt;[root] var.kibana_address -->
<g id="edge20" class="edge">
<title>[root] aws_route53_record.external_elb_route53_record&#45;&gt;[root] var.kibana_address</title>
<path fill="none" stroke="#000000" d="M374.7699,-359.8314C373.4865,-352.131 371.9604,-342.9743 370.5341,-334.4166"/>
<polygon fill="#000000" stroke="#000000" points="373.9634,-333.7018 368.8669,-324.4133 367.0586,-334.8526 373.9634,-333.7018"/>
</g>
<!-- [root] aws_security_group.elb_security_group&#45;&gt;[root] data.terraform_remote_state.vpc -->
<g id="edge21" class="edge">
<title>[root] aws_security_group.elb_security_group&#45;&gt;[root] data.terraform_remote_state.vpc</title>
<path fill="none" stroke="#000000" d="M757.2084,-143.8314C738.0741,-134.3302 714.4751,-122.6121 694.1858,-112.5374"/>
<polygon fill="#000000" stroke="#000000" points="695.6378,-109.3506 685.1246,-108.038 692.5245,-115.6203 695.6378,-109.3506"/>
</g>
<!-- [root] aws_security_group.elb_security_group&#45;&gt;[root] provider.aws -->
<g id="edge22" class="edge">
<title>[root] aws_security_group.elb_security_group&#45;&gt;[root] provider.aws</title>
<path fill="none" stroke="#000000" d="M852.5441,-143.9243C893.3806,-131.3592 946.9287,-114.8829 984.0366,-103.465"/>
<polygon fill="#000000" stroke="#000000" points="985.5143,-106.6724 994.0428,-100.3862 983.4557,-99.9819 985.5143,-106.6724"/>
</g>
<!-- [root] aws_security_group.elb_security_group&#45;&gt;[root] var.environment_name -->
<g id="edge23" class="edge">
<title>[root] aws_security_group.elb_security_group&#45;&gt;[root] var.environment_name</title>
<path fill="none" stroke="#000000" d="M904.9787,-143.9707C980.0179,-131.8022 1077.7767,-115.9494 1147.8995,-104.5781"/>
<polygon fill="#000000" stroke="#000000" points="1148.7282,-107.9896 1158.039,-102.9339 1147.6077,-101.0798 1148.7282,-107.9896"/>
</g>
<!-- [root] aws_security_group.elb_security_group&#45;&gt;[root] var.unique_id -->
<g id="edge24" class="edge">
<title>[root] aws_security_group.elb_security_group&#45;&gt;[root] var.unique_id</title>
<path fill="none" stroke="#000000" d="M808.1815,-143.8314C814.8476,-135.411 822.8922,-125.2495 830.1879,-116.0338"/>
<polygon fill="#000000" stroke="#000000" points="833.1537,-117.9264 836.6166,-107.9134 827.6654,-113.5814 833.1537,-117.9264"/>
</g>
<!-- [root] aws_security_group.security_group -->
<g id="node9" class="node">
<title>[root] aws_security_group.security_group</title>
<polygon fill="none" stroke="#000000" points="1148.0296,-180 931.5665,-180 931.5665,-144 1148.0296,-144 1148.0296,-180"/>
<text text-anchor="middle" x="1039.798" y="-157.8" font-family="Times,serif" font-size="14.00" fill="#000000">aws_security_group.security_group</text>
</g>
<!-- [root] aws_security_group.security_group&#45;&gt;[root] data.terraform_remote_state.vpc -->
<g id="edge25" class="edge">
<title>[root] aws_security_group.security_group&#45;&gt;[root] data.terraform_remote_state.vpc</title>
<path fill="none" stroke="#000000" d="M941.889,-143.9707C885.5437,-133.5951 814.6523,-120.5409 756.7044,-109.8702"/>
<polygon fill="#000000" stroke="#000000" points="757.2512,-106.4121 746.7827,-108.0432 755.9834,-113.2964 757.2512,-106.4121"/>
</g>
<!-- [root] aws_security_group.security_group&#45;&gt;[root] provider.aws -->
<g id="edge26" class="edge">
<title>[root] aws_security_group.security_group&#45;&gt;[root] provider.aws</title>
<path fill="none" stroke="#000000" d="M1036.7699,-143.8314C1035.4325,-135.8068 1033.8315,-126.2008 1032.3546,-117.3392"/>
<polygon fill="#000000" stroke="#000000" points="1035.7974,-116.7062 1030.701,-107.4177 1028.8927,-117.8571 1035.7974,-116.7062"/>
</g>
<!-- [root] aws_security_group.security_group&#45;&gt;[root] var.environment_name -->
<g id="edge27" class="edge">
<title>[root] aws_security_group.security_group&#45;&gt;[root] var.environment_name</title>
<path fill="none" stroke="#000000" d="M1089.5062,-143.9243C1117.809,-133.6324 1153.328,-120.7164 1182.508,-110.1055"/>
<polygon fill="#000000" stroke="#000000" points="1183.9394,-113.3092 1192.1412,-106.6025 1181.5472,-106.7307 1183.9394,-113.3092"/>
</g>
<!-- [root] aws_security_group.security_group&#45;&gt;[root] var.unique_id -->
<g id="edge28" class="edge">
<title>[root] aws_security_group.security_group&#45;&gt;[root] var.unique_id</title>
<path fill="none" stroke="#000000" d="M992.1054,-143.8314C964.4219,-133.2853 929.5687,-120.0079 901.4035,-109.2783"/>
<polygon fill="#000000" stroke="#000000" points="902.3336,-105.8873 891.7427,-105.598 899.8416,-112.4287 902.3336,-105.8873"/>
</g>
<!-- [root] data.template_file.user_data&#45;&gt;[root] aws_security_group.security_group -->
<g id="edge29" class="edge">
<title>[root] data.template_file.user_data&#45;&gt;[root] aws_security_group.security_group</title>
<path fill="none" stroke="#000000" d="M1972.155,-217.0558C1969.3404,-216.6742 1966.5492,-216.3203 1963.798,-216 1610.4925,-174.8615 1515.8273,-214.5964 1158.2263,-180.0744"/>
<polygon fill="#000000" stroke="#000000" points="1158.404,-176.5752 1148.1107,-179.085 1157.7224,-183.542 1158.404,-176.5752"/>
</g>
<!-- [root] provider.template -->
<g id="node14" class="node">
<title>[root] provider.template</title>
<polygon fill="none" stroke="#000000" points="1903.798,-180 1801.4724,-162 1903.798,-144 2006.1237,-162 1903.798,-180"/>
<text text-anchor="middle" x="1903.798" y="-157.8" font-family="Times,serif" font-size="14.00" fill="#000000">provider.template</text>
</g>
<!-- [root] data.template_file.user_data&#45;&gt;[root] provider.template -->
<g id="edge30" class="edge">
<title>[root] data.template_file.user_data&#45;&gt;[root] provider.template</title>
<path fill="none" stroke="#000000" d="M2019.685,-215.8314C1995.7229,-204.7006 1965.2108,-190.5272 1941.5105,-179.5181"/>
<polygon fill="#000000" stroke="#000000" points="1942.6811,-176.2027 1932.1373,-175.164 1939.7321,-182.5512 1942.6811,-176.2027"/>
</g>
<!-- [root] var.discovery_zen_minimum_master_nodes -->
<g id="node24" class="node">
<title>[root] var.discovery_zen_minimum_master_nodes</title>
<ellipse fill="none" stroke="#000000" cx="2212.798" cy="-162" rx="188.3196" ry="18"/>
<text text-anchor="middle" x="2212.798" y="-157.8" font-family="Times,serif" font-size="14.00" fill="#000000">[root] var.discovery_zen_minimum_master_nodes</text>
</g>
<!-- [root] data.template_file.user_data&#45;&gt;[root] var.discovery_zen_minimum_master_nodes -->
<g id="edge31" class="edge">
<title>[root] data.template_file.user_data&#45;&gt;[root] var.discovery_zen_minimum_master_nodes</title>
<path fill="none" stroke="#000000" d="M2097.6587,-215.8314C2118.3977,-206.1352 2144.075,-194.1303 2165.915,-183.9193"/>
<polygon fill="#000000" stroke="#000000" points="2167.438,-187.071 2175.0145,-179.665 2164.4733,-180.7298 2167.438,-187.071"/>
</g>
<!-- [root] var.elk_repository -->
<g id="node25" class="node">
<title>[root] var.elk_repository</title>
<ellipse fill="none" stroke="#000000" cx="2515.798" cy="-162" rx="96.6103" ry="18"/>
<text text-anchor="middle" x="2515.798" y="-157.8" font-family="Times,serif" font-size="14.00" fill="#000000">[root] var.elk_repository</text>
</g>
<!-- [root] data.template_file.user_data&#45;&gt;[root] var.elk_repository -->
<g id="edge32" class="edge">
<title>[root] data.template_file.user_data&#45;&gt;[root] var.elk_repository</title>
<path fill="none" stroke="#000000" d="M2145.4047,-221.0593C2216.4815,-210.3469 2319.7212,-194.5761 2409.798,-180 2417.9431,-178.682 2426.4358,-177.2824 2434.9131,-175.8689"/>
<polygon fill="#000000" stroke="#000000" points="2435.5514,-179.3108 2444.8359,-174.207 2434.3951,-172.4069 2435.5514,-179.3108"/>
</g>
<!-- [root] var.elk_repository_branch -->
<g id="node26" class="node">
<title>[root] var.elk_repository_branch</title>
<ellipse fill="none" stroke="#000000" cx="1658.798" cy="-162" rx="125.0747" ry="18"/>
<text text-anchor="middle" x="1658.798" y="-157.8" font-family="Times,serif" font-size="14.00" fill="#000000">[root] var.elk_repository_branch</text>
</g>
<!-- [root] data.template_file.user_data&#45;&gt;[root] var.elk_repository_branch -->
<g id="edge33" class="edge">
<title>[root] data.template_file.user_data&#45;&gt;[root] var.elk_repository_branch</title>
<path fill="none" stroke="#000000" d="M1972.0847,-217.5256C1969.2903,-217.0089 1966.5224,-216.4993 1963.798,-216 1891.5219,-202.7551 1809.5072,-188.2647 1748.7417,-177.632"/>
<polygon fill="#000000" stroke="#000000" points="1749.2496,-174.1678 1738.7962,-175.8929 1748.0438,-181.0631 1749.2496,-174.1678"/>
</g>
<!-- [root] provider.terraform -->
<g id="node15" class="node">
<title>[root] provider.terraform</title>
<polygon fill="none" stroke="#000000" points="327.798,-36 221.655,-18 327.798,0 433.9411,-18 327.798,-36"/>
<text text-anchor="middle" x="327.798" y="-13.8" font-family="Times,serif" font-size="14.00" fill="#000000">provider.terraform</text>
</g>
<!-- [root] data.terraform_remote_state.account&#45;&gt;[root] provider.terraform -->
<g id="edge34" class="edge">
<title>[root] data.terraform_remote_state.account&#45;&gt;[root] provider.terraform</title>
<path fill="none" stroke="#000000" d="M491.8445,-215.9555C459.6379,-177.0917 383.7142,-85.4743 347.579,-41.8697"/>
<polygon fill="#000000" stroke="#000000" points="350.1862,-39.5306 341.1105,-34.0641 344.7964,-43.9972 350.1862,-39.5306"/>
</g>
<!-- [root] var.aws_account -->
<g id="node27" class="node">
<title>[root] var.aws_account</title>
<ellipse fill="none" stroke="#000000" cx="542.798" cy="-18" rx="91.2894" ry="18"/>
<text text-anchor="middle" x="542.798" y="-13.8" font-family="Times,serif" font-size="14.00" fill="#000000">[root] var.aws_account</text>
</g>
<!-- [root] data.terraform_remote_state.account&#45;&gt;[root] var.aws_account -->
<g id="edge35" class="edge">
<title>[root] data.terraform_remote_state.account&#45;&gt;[root] var.aws_account</title>
<path fill="none" stroke="#000000" d="M509.8055,-215.9555C516.079,-178.3144 530.6003,-91.1867 538.1106,-46.1246"/>
<polygon fill="#000000" stroke="#000000" points="541.5822,-46.5844 539.7739,-36.1451 534.6774,-45.4336 541.5822,-46.5844"/>
</g>
<!-- [root] data.terraform_remote_state.vpc&#45;&gt;[root] provider.terraform -->
<g id="edge36" class="edge">
<title>[root] data.terraform_remote_state.vpc&#45;&gt;[root] provider.terraform</title>
<path fill="none" stroke="#000000" d="M568.2105,-71.9243C510.5806,-58.998 434.4961,-41.9323 383.4962,-30.493"/>
<polygon fill="#000000" stroke="#000000" points="384.1672,-27.0567 373.6436,-28.2831 382.6351,-33.8869 384.1672,-27.0567"/>
</g>
<!-- [root] data.terraform_remote_state.vpc&#45;&gt;[root] var.aws_account -->
<g id="edge37" class="edge">
<title>[root] data.terraform_remote_state.vpc&#45;&gt;[root] var.aws_account</title>
<path fill="none" stroke="#000000" d="M622.0498,-71.8314C608.3096,-62.4984 591.4203,-51.0264 576.7684,-41.0742"/>
<polygon fill="#000000" stroke="#000000" points="578.6796,-38.1413 568.4408,-35.4177 574.7464,-43.9319 578.6796,-38.1413"/>
</g>
<!-- [root] var.aws_region -->
<g id="node28" class="node">
<title>[root] var.aws_region</title>
<ellipse fill="none" stroke="#000000" cx="992.798" cy="-18" rx="86.4791" ry="18"/>
<text text-anchor="middle" x="992.798" y="-13.8" font-family="Times,serif" font-size="14.00" fill="#000000">[root] var.aws_region</text>
</g>
<!-- [root] data.terraform_remote_state.vpc&#45;&gt;[root] var.aws_region -->
<g id="edge38" class="edge">
<title>[root] data.terraform_remote_state.vpc&#45;&gt;[root] var.aws_region</title>
<path fill="none" stroke="#000000" d="M735.1597,-71.9243C792.8669,-59.8461 867.841,-44.1538 922.0176,-32.8145"/>
<polygon fill="#000000" stroke="#000000" points="922.8119,-36.2242 931.8827,-30.7497 921.3778,-29.3727 922.8119,-36.2242"/>
</g>
<!-- [root] var.vpc_name -->
<g id="node29" class="node">
<title>[root] var.vpc_name</title>
<ellipse fill="none" stroke="#000000" cx="733.798" cy="-18" rx="81.6268" ry="18"/>
<text text-anchor="middle" x="733.798" y="-13.8" font-family="Times,serif" font-size="14.00" fill="#000000">[root] var.vpc_name</text>
</g>
<!-- [root] data.terraform_remote_state.vpc&#45;&gt;[root] var.vpc_name -->
<g id="edge39" class="edge">
<title>[root] data.terraform_remote_state.vpc&#45;&gt;[root] var.vpc_name</title>
<path fill="none" stroke="#000000" d="M670.2471,-71.8314C680.8763,-62.8278 693.8557,-51.8335 705.3073,-42.1334"/>
<polygon fill="#000000" stroke="#000000" points="707.5752,-44.7992 712.9435,-35.665 703.0508,-39.4578 707.5752,-44.7992"/>
</g>
<!-- [root] provider.aws&#45;&gt;[root] var.aws_region -->
<g id="edge53" class="edge">
<title>[root] provider.aws&#45;&gt;[root] var.aws_region</title>
<path fill="none" stroke="#000000" d="M1019.856,-73.6621C1015.7718,-65.2603 1010.6857,-54.7974 1006.0291,-45.2181"/>
<polygon fill="#000000" stroke="#000000" points="1009.0884,-43.5058 1001.5686,-36.0423 1002.7928,-46.5662 1009.0884,-43.5058"/>
</g>
<!-- [root] meta.count&#45;boundary (count boundary fixup) -->
<g id="node30" class="node">
<title>[root] meta.count&#45;boundary (count boundary fixup)</title>
<ellipse fill="none" stroke="#000000" cx="880.798" cy="-522" rx="191.6931" ry="18"/>
<text text-anchor="middle" x="880.798" y="-517.8" font-family="Times,serif" font-size="14.00" fill="#000000">[root] meta.count&#45;boundary (count boundary fixup)</text>
</g>
<!-- [root] meta.count&#45;boundary (count boundary fixup)&#45;&gt;[root] aws_iam_role_policy.ec2_iam_role_policy -->
<g id="edge40" class="edge">
<title>[root] meta.count&#45;boundary (count boundary fixup)&#45;&gt;[root] aws_iam_role_policy.ec2_iam_role_policy</title>
<path fill="none" stroke="#000000" d="M837.297,-504.37C816.1301,-494.9247 790.7885,-482.2934 769.798,-468 742.154,-449.1759 714.4331,-422.8574 695.5641,-403.5423"/>
<polygon fill="#000000" stroke="#000000" points="697.9989,-401.025 688.5387,-396.2546 692.9593,-405.8832 697.9989,-401.025"/>
</g>
<!-- [root] meta.count&#45;boundary (count boundary fixup)&#45;&gt;[root] aws_route53_record.external_elb_route53_record -->
<g id="edge41" class="edge">
<title>[root] meta.count&#45;boundary (count boundary fixup)&#45;&gt;[root] aws_route53_record.external_elb_route53_record</title>
<path fill="none" stroke="#000000" d="M729.6347,-510.9218C634.8818,-502.2139 522.6694,-488.1575 478.798,-468 446.6275,-453.2187 417.3238,-424.6394 398.6651,-403.6367"/>
<polygon fill="#000000" stroke="#000000" points="401.2448,-401.269 392.0514,-396.0027 395.9541,-405.8526 401.2448,-401.269"/>
</g>
<!-- [root] output.autoscaling_group_id -->
<g id="node31" class="node">
<title>[root] output.autoscaling_group_id</title>
<ellipse fill="none" stroke="#000000" cx="1351.798" cy="-450" rx="133.7876" ry="18"/>
<text text-anchor="middle" x="1351.798" y="-445.8" font-family="Times,serif" font-size="14.00" fill="#000000">[root] output.autoscaling_group_id</text>
</g>
<!-- [root] meta.count&#45;boundary (count boundary fixup)&#45;&gt;[root] output.autoscaling_group_id -->
<g id="edge42" class="edge">
<title>[root] meta.count&#45;boundary (count boundary fixup)&#45;&gt;[root] output.autoscaling_group_id</title>
<path fill="none" stroke="#000000" d="M981.2616,-506.6425C1061.4499,-494.3844 1173.1871,-477.3036 1252.9481,-465.1108"/>
<polygon fill="#000000" stroke="#000000" points="1253.6455,-468.545 1263.0017,-463.574 1252.5877,-461.6253 1253.6455,-468.545"/>
</g>
<!-- [root] output.launch_configuration_id -->
<g id="node32" class="node">
<title>[root] output.launch_configuration_id</title>
<ellipse fill="none" stroke="#000000" cx="1783.798" cy="-378" rx="143.9352" ry="18"/>
<text text-anchor="middle" x="1783.798" y="-373.8" font-family="Times,serif" font-size="14.00" fill="#000000">[root] output.launch_configuration_id</text>
</g>
<!-- [root] meta.count&#45;boundary (count boundary fixup)&#45;&gt;[root] output.launch_configuration_id -->
<g id="edge43" class="edge">
<title>[root] meta.count&#45;boundary (count boundary fixup)&#45;&gt;[root] output.launch_configuration_id</title>
<path fill="none" stroke="#000000" d="M1062.5738,-516.222C1185.5398,-509.8245 1351.1005,-496.3534 1494.798,-468 1578.3816,-451.5079 1672.0043,-419.8096 1729.4295,-398.7791"/>
<polygon fill="#000000" stroke="#000000" points="1730.8521,-401.985 1739.0235,-395.2413 1728.4302,-395.4173 1730.8521,-401.985"/>
</g>
<!-- [root] output.security_group_id -->
<g id="node33" class="node">
<title>[root] output.security_group_id</title>
<ellipse fill="none" stroke="#000000" cx="939.798" cy="-378" rx="121.7263" ry="18"/>
<text text-anchor="middle" x="939.798" y="-373.8" font-family="Times,serif" font-size="14.00" fill="#000000">[root] output.security_group_id</text>
</g>
<!-- [root] meta.count&#45;boundary (count boundary fixup)&#45;&gt;[root] output.security_group_id -->
<g id="edge44" class="edge">
<title>[root] meta.count&#45;boundary (count boundary fixup)&#45;&gt;[root] output.security_group_id</title>
<path fill="none" stroke="#000000" d="M824.8613,-504.6586C807.6795,-496.4117 790.7034,-484.6062 780.798,-468 772.6016,-454.2589 771.4794,-445.0063 780.798,-432 790.9636,-417.8118 826.406,-405.0821 861.255,-395.5507"/>
<polygon fill="#000000" stroke="#000000" points="862.2813,-398.8995 871.047,-392.9486 860.4835,-392.1343 862.2813,-398.8995"/>
</g>
<!-- [root] var.apply_immediately -->
<g id="node34" class="node">
<title>[root] var.apply_immediately</title>
<ellipse fill="none" stroke="#000000" cx="903.798" cy="-450" rx="113.9915" ry="18"/>
<text text-anchor="middle" x="903.798" y="-445.8" font-family="Times,serif" font-size="14.00" fill="#000000">[root] var.apply_immediately</text>
</g>
<!-- [root] meta.count&#45;boundary (count boundary fixup)&#45;&gt;[root] var.apply_immediately -->
<g id="edge45" class="edge">
<title>[root] meta.count&#45;boundary (count boundary fixup)&#45;&gt;[root] var.apply_immediately</title>
<path fill="none" stroke="#000000" d="M886.6019,-503.8314C889.0888,-496.0463 892.0511,-486.7729 894.8106,-478.1347"/>
<polygon fill="#000000" stroke="#000000" points="898.207,-479.0041 897.916,-468.4133 891.539,-476.874 898.207,-479.0041"/>
</g>
<!-- [root] var.node_type -->
<g id="node35" class="node">
<title>[root] var.node_type</title>
<ellipse fill="none" stroke="#000000" cx="1117.798" cy="-450" rx="82.1199" ry="18"/>
<text text-anchor="middle" x="1117.798" y="-445.8" font-family="Times,serif" font-size="14.00" fill="#000000">[root] var.node_type</text>
</g>
<!-- [root] meta.count&#45;boundary (count boundary fixup)&#45;&gt;[root] var.node_type -->
<g id="edge46" class="edge">
<title>[root] meta.count&#45;boundary (count boundary fixup)&#45;&gt;[root] var.node_type</title>
<path fill="none" stroke="#000000" d="M937.5654,-504.7542C974.5238,-493.5264 1022.5972,-478.9218 1059.7989,-467.62"/>
<polygon fill="#000000" stroke="#000000" points="1060.9452,-470.9298 1069.496,-464.674 1058.9104,-464.232 1060.9452,-470.9298"/>
</g>
<!-- [root] output.autoscaling_group_id&#45;&gt;[root] aws_autoscaling_group.autoscaling_group -->
<g id="edge47" class="edge">
<title>[root] output.autoscaling_group_id&#45;&gt;[root] aws_autoscaling_group.autoscaling_group</title>
<path fill="none" stroke="#000000" d="M1323.6659,-432.3868C1308.8541,-423.1133 1290.4883,-411.6147 1274.4644,-401.5824"/>
<polygon fill="#000000" stroke="#000000" points="1276.1738,-398.5233 1265.8406,-396.1832 1272.4591,-404.4564 1276.1738,-398.5233"/>
</g>
<!-- [root] output.launch_configuration_id&#45;&gt;[root] aws_launch_configuration.launch_configuration -->
<g id="edge48" class="edge">
<title>[root] output.launch_configuration_id&#45;&gt;[root] aws_launch_configuration.launch_configuration</title>
<path fill="none" stroke="#000000" d="M1809.5059,-360.2022C1822.6565,-351.098 1838.8514,-339.8861 1853.0932,-330.0265"/>
<polygon fill="#000000" stroke="#000000" points="1855.4338,-332.6629 1861.6635,-324.0931 1851.4493,-326.9076 1855.4338,-332.6629"/>
</g>
<!-- [root] output.security_group_id&#45;&gt;[root] aws_security_group.security_group -->
<g id="edge49" class="edge">
<title>[root] output.security_group_id&#45;&gt;[root] aws_security_group.security_group</title>
<path fill="none" stroke="#000000" d="M853.7138,-365.2194C806.6206,-356.2763 755.0153,-342.5894 740.798,-324 731.078,-311.2909 731.9497,-301.3307 740.798,-288 766.7514,-248.8995 885.5872,-207.3198 965.4013,-183.0526"/>
<polygon fill="#000000" stroke="#000000" points="966.8522,-186.271 975.4177,-180.0354 964.8332,-179.5684 966.8522,-186.271"/>
</g>
<!-- [root] provider.aws (close) -->
<g id="node36" class="node">
<title>[root] provider.aws (close)</title>
<ellipse fill="none" stroke="#000000" cx="591.798" cy="-450" rx="104.3276" ry="18"/>
<text text-anchor="middle" x="591.798" y="-445.8" font-family="Times,serif" font-size="14.00" fill="#000000">[root] provider.aws (close)</text>
</g>
<!-- [root] provider.aws (close)&#45;&gt;[root] aws_autoscaling_group.autoscaling_group -->
<g id="edge50" class="edge">
<title>[root] provider.aws (close)&#45;&gt;[root] aws_autoscaling_group.autoscaling_group</title>
<path fill="none" stroke="#000000" d="M679.4569,-440.2148C787.3594,-428.1699 971.8673,-407.5737 1098.8446,-393.3995"/>
<polygon fill="#000000" stroke="#000000" points="1099.4815,-396.8502 1109.0315,-392.2623 1098.7049,-389.8934 1099.4815,-396.8502"/>
</g>
<!-- [root] provider.aws (close)&#45;&gt;[root] aws_iam_role_policy.ec2_iam_role_policy -->
<g id="edge51" class="edge">
<title>[root] provider.aws (close)&#45;&gt;[root] aws_iam_role_policy.ec2_iam_role_policy</title>
<path fill="none" stroke="#000000" d="M611.5733,-432.2022C621.4028,-423.3557 633.4435,-412.5191 644.1683,-402.8668"/>
<polygon fill="#000000" stroke="#000000" points="646.603,-405.3843 651.6946,-396.0931 641.9202,-400.1813 646.603,-405.3843"/>
</g>
<!-- [root] provider.aws (close)&#45;&gt;[root] aws_route53_record.external_elb_route53_record -->
<g id="edge52" class="edge">
<title>[root] provider.aws (close)&#45;&gt;[root] aws_route53_record.external_elb_route53_record</title>
<path fill="none" stroke="#000000" d="M544.0386,-433.9314C513.6548,-423.7088 473.9649,-410.3552 440.9865,-399.2597"/>
<polygon fill="#000000" stroke="#000000" points="442.026,-395.9167 431.432,-396.0451 439.7938,-402.5512 442.026,-395.9167"/>
</g>
<!-- [root] provider.template (close) -->
<g id="node37" class="node">
<title>[root] provider.template (close)</title>
<ellipse fill="none" stroke="#000000" cx="1665.798" cy="-522" rx="120.715" ry="18"/>
<text text-anchor="middle" x="1665.798" y="-517.8" font-family="Times,serif" font-size="14.00" fill="#000000">[root] provider.template (close)</text>
</g>
<!-- [root] provider.template (close)&#45;&gt;[root] data.template_file.user_data -->
<g id="edge54" class="edge">
<title>[root] provider.template (close)&#45;&gt;[root] data.template_file.user_data</title>
<path fill="none" stroke="#000000" d="M1733.8749,-507.0861C1820.9911,-484.0801 1969.07,-430.9272 2039.798,-324 2051.9327,-305.6548 2056.5098,-280.9976 2058.149,-262.1308"/>
<polygon fill="#000000" stroke="#000000" points="2061.648,-262.2572 2058.7983,-252.0529 2054.6625,-261.8071 2061.648,-262.2572"/>
</g>
<!-- [root] provider.terraform (close) -->
<g id="node38" class="node">
<title>[root] provider.terraform (close)</title>
<ellipse fill="none" stroke="#000000" cx="123.798" cy="-306" rx="123.5964" ry="18"/>
<text text-anchor="middle" x="123.798" y="-301.8" font-family="Times,serif" font-size="14.00" fill="#000000">[root] provider.terraform (close)</text>
</g>
<!-- [root] provider.terraform (close)&#45;&gt;[root] data.terraform_remote_state.account -->
<g id="edge55" class="edge">
<title>[root] provider.terraform (close)&#45;&gt;[root] data.terraform_remote_state.account</title>
<path fill="none" stroke="#000000" d="M199.9244,-291.689C257.3877,-280.8865 336.9477,-265.9301 400.6589,-253.953"/>
<polygon fill="#000000" stroke="#000000" points="401.5611,-257.3448 410.7423,-252.0575 400.2678,-250.4653 401.5611,-257.3448"/>
</g>
<!-- [root] provider.terraform (close)&#45;&gt;[root] data.terraform_remote_state.vpc -->
<g id="edge56" class="edge">
<title>[root] provider.terraform (close)&#45;&gt;[root] data.terraform_remote_state.vpc</title>
<path fill="none" stroke="#000000" d="M165.4327,-288.8703C259.9769,-249.9721 490.7634,-155.02 595.5178,-111.921"/>
<polygon fill="#000000" stroke="#000000" points="597.036,-115.0811 604.9521,-108.0395 594.3725,-108.6076 597.036,-115.0811"/>
</g>
<!-- [root] root -->
<g id="node39" class="node">
<title>[root] root</title>
<ellipse fill="none" stroke="#000000" cx="724.798" cy="-594" rx="46.8976" ry="18"/>
<text text-anchor="middle" x="724.798" y="-589.8" font-family="Times,serif" font-size="14.00" fill="#000000">[root] root</text>
</g>
<!-- [root] root&#45;&gt;[root] meta.count&#45;boundary (count boundary fixup) -->
<g id="edge57" class="edge">
<title>[root] root&#45;&gt;[root] meta.count&#45;boundary (count boundary fixup)</title>
<path fill="none" stroke="#000000" d="M754.8764,-580.1177C777.1134,-569.8544 807.8346,-555.6754 833.3654,-543.892"/>
<polygon fill="#000000" stroke="#000000" points="834.8984,-547.0393 842.5113,-539.6708 831.965,-540.6836 834.8984,-547.0393"/>
</g>
<!-- [root] root&#45;&gt;[root] provider.aws (close) -->
<g id="edge58" class="edge">
<title>[root] root&#45;&gt;[root] provider.aws (close)</title>
<path fill="none" stroke="#000000" d="M709.0189,-576.9158C685.7743,-551.7487 642.1739,-504.5423 615.1977,-475.335"/>
<polygon fill="#000000" stroke="#000000" points="617.7465,-472.9361 608.3904,-467.9647 612.6042,-477.6855 617.7465,-472.9361"/>
</g>
<!-- [root] root&#45;&gt;[root] provider.template (close) -->
<g id="edge59" class="edge">
<title>[root] root&#45;&gt;[root] provider.template (close)</title>
<path fill="none" stroke="#000000" d="M770.8214,-590.4786C911.5021,-579.7145 1338.9252,-547.0105 1548.0444,-531.0098"/>
<polygon fill="#000000" stroke="#000000" points="1548.4371,-534.4901 1558.1409,-530.2373 1547.903,-527.5105 1548.4371,-534.4901"/>
</g>
<!-- [root] root&#45;&gt;[root] provider.terraform (close) -->
<g id="edge60" class="edge">
<title>[root] root&#45;&gt;[root] provider.terraform (close)</title>
<path fill="none" stroke="#000000" d="M685.5197,-583.997C597.5137,-560.4636 379.7843,-495.933 220.798,-396 192.2955,-378.0843 164.6388,-351.1875 146.1997,-331.4629"/>
<polygon fill="#000000" stroke="#000000" points="148.7075,-329.0192 139.3636,-324.0249 143.5536,-333.7561 148.7075,-329.0192"/>
</g>
</g>
</svg>
